<svg viewBox="0 0 16 16" fill="none" xmlns="http://www.w3.org/2000/svg">
<path d="M3.55354 0.0074892C2.95868 0.0732374 2.27615 0.323708 1.7846 0.65245C1.52474 0.827778 1.44646 0.893527 1.14903 1.1847C0.610521 1.71382 0.231685 2.41826 0.0594866 3.21037C0.00313088 3.46397 0 3.69879 0 8.00061C0 12.3024 0.00313088 12.5373 0.0594866 12.7909C0.413276 14.4033 1.59675 15.5867 3.20915 15.9405C3.46275 15.9969 3.69756 16 7.99939 16C12.3012 16 12.536 15.9969 12.7896 15.9405C14.402 15.5867 15.5855 14.4033 15.9393 12.7909C15.9956 12.5373 15.9988 12.3024 15.9988 8.00061C15.9988 3.69879 15.9956 3.46397 15.9393 3.21037C15.6262 1.77643 14.6181 0.633664 13.2749 0.195341C12.655 -0.00816536 13.0307 0.00435829 8.12462 0.00122738C5.67002 -0.00190353 3.61303 0.00122738 3.55354 0.0074892ZM12.5392 1.37568C12.8335 1.4383 13.2123 1.59171 13.444 1.74512C14.0514 2.14275 14.5053 2.81588 14.6337 3.50781C14.6588 3.63304 14.6682 5.04194 14.6682 8.01314C14.6682 11.5729 14.6588 12.3744 14.6243 12.5404C14.521 13.0288 14.258 13.5172 13.9073 13.8804C13.5536 14.2436 12.9681 14.5535 12.4703 14.6381C12.3325 14.66 10.9174 14.6694 7.87415 14.6631L3.47527 14.6537L3.17784 14.5504C2.76456 14.4064 2.42956 14.1997 2.129 13.9023C1.72824 13.5078 1.48717 13.0726 1.37445 12.5404C1.31184 12.2367 1.31184 3.76454 1.37445 3.46084C1.59675 2.41826 2.40138 1.60737 3.44396 1.37881C3.72887 1.31619 12.2449 1.31306 12.5392 1.37568Z" fill="#000e0c"/>
<path d="M7.74891 4.04319C7.61742 4.09954 7.47966 4.22478 7.41078 4.35314C7.36382 4.43455 7.35442 4.6224 7.3419 5.88727L7.32625 7.32748L5.88604 7.34313C4.31121 7.35878 4.36131 7.35252 4.17346 7.5529C3.93551 7.80337 3.93551 8.19786 4.17346 8.44833C4.36131 8.6487 4.31121 8.64244 5.88604 8.6581L7.32625 8.67375L7.3419 10.114C7.35756 11.6888 7.35129 11.6387 7.55167 11.8265C7.80214 12.0645 8.19663 12.0645 8.4471 11.8265C8.64748 11.6387 8.64121 11.6888 8.65687 10.114L8.67252 8.67375L10.1127 8.6581C11.6876 8.64244 11.6375 8.6487 11.8253 8.44833C12.0633 8.19786 12.0633 7.80337 11.8253 7.5529C11.6375 7.35252 11.6876 7.35878 10.1127 7.34313L8.67252 7.32748L8.65687 5.88727C8.64121 4.31244 8.64748 4.36254 8.4471 4.17468C8.26551 3.99935 7.97434 3.94613 7.74891 4.04319Z" fill="#000e0c"/>
</svg>
