<svg width="14" height="14" viewBox="0 0 14 14" fill="none" xmlns="http://www.w3.org/2000/svg">
<g clip-path="url(#clip0_28_3278)">
<path d="M2.58803 0.116763C2.1474 0.337075 1.94584 0.805825 2.08646 1.28395C2.13803 1.45739 2.2224 1.57926 2.40521 1.75739C2.54115 1.88864 3.96615 3.11676 5.57396 4.4902C7.17709 5.86364 8.48959 6.99801 8.4849 7.01676C8.4849 7.03551 7.18646 8.15583 5.60209 9.51051C1.9599 12.6183 2.13334 12.459 2.04428 12.759C1.79115 13.6074 2.6724 14.348 3.44115 13.9355C3.71771 13.7855 10.7021 7.79489 10.8615 7.56989C11.1615 7.14801 11.1005 6.65114 10.7068 6.26676C10.5849 6.14958 8.91615 4.7152 7.00365 3.07926C4.3974 0.848013 3.48334 0.0933256 3.34271 0.0511379C3.06146 -0.0332375 2.8599 -0.0144873 2.58803 0.116763Z" fill="#000E0C" fill-opacity="0.75"/>
</g>
<defs>
<clipPath id="clip0_28_3278">
<rect width="14" height="14" fill="white"/>
</clipPath>
</defs>
</svg>
