<svg width="16" height="16" viewBox="0 0 16 16" fill="none" xmlns="http://www.w3.org/2000/svg">
<path d="M2.47312 0.0102237C1.44951 0.154218 0.519804 0.89297 0.17547 1.83519C-0.0123479 2.35482 0.000173304 1.86336 0.000173304 8.00189C0.000173304 14.1404 -0.0123479 13.649 0.17547 14.1686C0.441546 14.8917 1.1083 15.5585 1.8314 15.8245C2.35103 16.0123 1.85958 15.9998 7.99811 15.9998C14.1366 15.9998 13.6452 16.0123 14.1648 15.8245C14.8879 15.5585 15.5547 14.8917 15.8207 14.1686C16.0086 13.649 15.996 14.1404 15.996 8.00189C15.996 1.86336 16.0086 2.35482 15.8207 1.83519C15.6047 1.24356 15.1102 0.673848 14.5311 0.351427C14.3182 0.232475 14.1773 0.176129 13.8361 0.0728288L13.617 0.00709269L8.09202 0.000832175C5.05249 -0.00229813 2.52633 0.00396305 2.47312 0.0102237ZM13.5794 1.19348C14.1711 1.34686 14.6531 1.82893 14.8065 2.42056C14.8785 2.68976 14.8785 13.314 14.8065 13.5832C14.6531 14.1749 14.1711 14.6569 13.5794 14.8103C13.3102 14.8823 2.68598 14.8823 2.41677 14.8103C1.82514 14.6569 1.34307 14.1749 1.18969 13.5832C1.11769 13.314 1.11769 2.68976 1.18969 2.42056C1.33994 1.83832 1.82201 1.34999 2.40425 1.19348C2.6578 1.12774 13.3165 1.12461 13.5794 1.19348Z" fill="black"/>
<path d="M4.6001 8C4.6001 7.72386 4.82396 7.5 5.1001 7.5H10.9001C11.1762 7.5 11.4001 7.72386 11.4001 8V8C11.4001 8.27614 11.1762 8.5 10.9001 8.5H5.1001C4.82395 8.5 4.6001 8.27614 4.6001 8V8Z" fill="black"/>
</svg>
