<svg width="16" height="16" viewBox="0 0 16 16" fill="none" xmlns="http://www.w3.org/2000/svg">
<g clip-path="url(#clip0_28_5543)">
<path d="M0.712632 1.59712C0.579963 1.92879 0.557852 2.39313 0.662882 2.74139C0.723689 2.96803 1.03878 3.31629 3.24993 5.57166L5.76511 8.14212L3.24992 10.7126C0.497045 13.5207 0.574435 13.4212 0.596546 14.1067C0.618657 14.969 1.31517 15.6655 2.17752 15.6877C2.86297 15.7098 2.76347 15.7872 5.57163 13.0343L8.14209 10.5191L10.7126 13.0343C13.5207 15.7872 13.4212 15.7098 14.1067 15.6877C14.969 15.6655 15.6655 14.969 15.6876 14.1067C15.7097 13.4212 15.7871 13.5207 13.0343 10.7126L10.5191 8.14212L13.0343 5.57166C15.7871 2.7635 15.7097 2.863 15.6876 2.17754C15.6655 1.31519 14.969 0.618682 14.1067 0.596571C13.4212 0.57446 13.5207 0.497071 10.7126 3.24995L8.14209 5.76513L5.57163 3.24995C2.76347 0.497072 2.86297 0.574461 2.17752 0.596572C1.54734 0.607628 0.939276 1.02775 0.712632 1.59712Z" fill="#001714" fill-opacity="0.4"/>
</g>
<defs>
<clipPath id="clip0_28_5543">
<rect width="16" height="16" fill="white"/>
</clipPath>
</defs>
</svg>
