<svg width="16" height="16" fill="none" xmlns="http://www.w3.org/2000/svg"><path d="M2.473.01C1.45.154.52.893.175 1.835-.012 2.355 0 1.863 0 8.002c0 6.138-.012 5.647.175 6.167.267.723.933 1.39 1.656 1.655.52.188.029.176 6.167.176 6.139 0 5.647.012 6.167-.175.723-.266 1.39-.933 1.656-1.656.188-.52.175-.029.175-6.167 0-6.139.013-5.647-.175-6.167-.216-.591-.71-1.161-1.29-1.484-.213-.119-.354-.175-.695-.278l-.219-.066L8.092.001c-3.04-.003-5.566.003-5.619.01ZM13.58 1.193a1.736 1.736 0 0 1 1.227 1.228c.073.269.073 10.893 0 11.162a1.736 1.736 0 0 1-1.227 1.227c-.269.072-10.893.072-11.162 0a1.736 1.736 0 0 1-1.227-1.227c-.072-.269-.072-10.893 0-11.162.15-.583.632-1.071 1.214-1.228.254-.065 10.913-.068 11.175 0Z" fill="#000"/><path d="M7.842 4.593a.517.517 0 0 0-.342.288c-.062.131-.065.181-.065 1.346v1.208l-1.246.01-1.246.009-.128.085a.568.568 0 0 0 0 .926l.128.085 1.243.009 1.246.01.009 1.245.01 1.243.084.128c.213.32.714.32.926 0l.085-.128.01-1.243.009-1.246L9.81 8.56l1.242-.01.129-.084a.568.568 0 0 0 0-.926l-.129-.085-1.242-.01-1.246-.009-.01-1.246-.009-1.242-.085-.129a.575.575 0 0 0-.62-.225Z" fill="#000"/></svg>