<svg width="14" height="14" fill="none" xmlns="http://www.w3.org/2000/svg"><g clip-path="url('#clip0_28_3278')"><path d="M2.588.117a.965.965 0 0 0-.502 1.167c.052.173.136.295.32.473.135.132 1.56 1.36 3.168 2.733 1.603 1.374 2.916 2.508 2.91 2.527 0 .019-1.298 1.139-2.882 2.494-3.642 3.107-3.469 2.948-3.558 3.248-.253.848.628 1.589 1.397 1.176.277-.15 7.261-6.14 7.42-6.365.3-.422.24-.919-.154-1.303a405.95 405.95 0 0 0-3.703-3.188C4.397.848 3.484.093 3.343.051c-.282-.084-.483-.065-.755.066Z" fill="#000E0C" fill-opacity=".75"/></g><defs><clipPath id="clip0_28_3278"><path fill="#fff" d="M0 0h14v14H0z"/></clipPath></defs></svg>